<?xml version="1.0" encoding="UTF-8" standalone="no"?>
<svg width="211px" height="41px" viewBox="0 0 211 41" version="1.1" xmlns="http://www.w3.org/2000/svg" xmlns:xlink="http://www.w3.org/1999/xlink">
    <!-- Generator: Sketch 41.1 (35376) - http://www.bohemiancoding.com/sketch -->
    <title>transfeera-logo</title>
    <desc>Created with Sketch.</desc>
    <defs></defs>
    <g id="Page-1" stroke="none" stroke-width="1" fill="none" fill-rule="evenodd">
        <g id="Home---XL" transform="translate(-150.000000, -25.000000)">
            <g id="navbar">
                <g id="transfeera-logo" transform="translate(150.000000, 25.000000)">
                    <path d="M75.2934434,26.5149225 L75.2934434,15.7722868 L72.3063952,15.7722868 C71.5437446,15.7722868 70.9082024,15.1366279 70.9082024,14.3738372 C70.9082024,13.6110465 71.5437446,12.9753876 72.3063952,12.9753876 L81.4264253,12.9753876 C82.1890759,12.9753876 82.8246181,13.6110465 82.8246181,14.3738372 C82.8246181,15.1366279 82.1890759,15.7722868 81.4264253,15.7722868 L78.4711542,15.7722868 L78.4711542,26.5149225 C78.4711542,27.2777132 77.835612,27.9133721 77.0729614,27.9133721 L76.659859,27.9133721 C75.9289855,27.9133721 75.2934434,27.3094961 75.2934434,26.5149225" id="Fill-1" fill="#005F56"></path>
                    <path d="M93.6288349,17.7746124 C93.6288349,16.5350775 92.6755217,15.7722868 91.4044373,15.7722868 L88.0360639,15.7722868 L88.0360639,19.8087209 L91.4044373,19.8087209 C92.6755217,19.8087209 93.6288349,19.0459302 93.6288349,17.7746124 M92.8661843,27.1187984 L90.3875699,22.6056202 L88.067841,22.6056202 L88.067841,26.3560078 C88.067841,27.2141473 87.3687446,27.9133721 86.5107627,27.9133721 L86.4472084,27.9133721 C85.5892265,27.9133721 84.8901301,27.2141473 84.8901301,26.3560078 L84.8901301,12.9753876 L91.881094,12.9753876 C94.9952506,12.9753876 96.9336542,15.0094961 96.9336542,17.8063953 C96.9336542,20.4125969 95.2494675,21.8428295 93.6288349,22.2242248 L95.5990157,25.5296512 C96.2345578,26.5784884 95.4719072,27.8815891 94.2643771,27.8815891 C93.6923892,27.9133721 93.1521783,27.5955426 92.8661843,27.1187984" id="Fill-3" fill="#005F56"></path>
                    <path d="M105.481696,16.1536822 L103.161967,22.5738372 L107.801425,22.5738372 L105.481696,16.1536822 Z M109.231395,26.8963178 L108.659407,25.4025194 L102.272208,25.4025194 L101.70022,26.8963178 C101.477781,27.5319767 100.905793,27.9133721 100.238473,27.9133721 L100.016034,27.9133721 C98.935612,27.9133721 98.1411843,26.800969 98.5542867,25.7839147 L102.780642,14.8187984 C103.225522,13.7063953 104.274166,12.9436047 105.513473,12.9436047 C106.721004,12.9436047 107.801425,13.7063953 108.246305,14.8187984 L112.47266,25.7839147 C112.853986,26.8327519 112.123112,27.9133721 111.010913,27.9133721 L110.788473,27.9133721 C110.0576,27.9133721 109.453835,27.5319767 109.231395,26.8963178 L109.231395,26.8963178 Z" id="Fill-5" fill="#005F56"></path>
                    <path d="M124.23019,26.9598837 L117.779437,18.1560078 L117.779437,26.3242248 C117.779437,27.2141473 117.080341,27.9133721 116.190582,27.9133721 C115.300823,27.9133721 114.601727,27.2141473 114.601727,26.3242248 L114.601727,15.0094961 C114.601727,13.897093 115.523263,12.9753876 116.635461,12.9753876 C117.398112,12.9753876 118.128986,13.325 118.605642,13.9606589 L124.802178,22.3513566 L124.802178,14.5645349 C124.802178,13.6746124 125.501275,12.9753876 126.391034,12.9753876 C127.280793,12.9753876 127.979889,13.6746124 127.979889,14.5645349 L127.979889,26.0063953 C127.979889,27.0552326 127.121907,27.9133721 126.073263,27.9133721 C125.342389,27.8815891 124.67507,27.5637597 124.23019,26.9598837" id="Fill-7" fill="#005F56"></path>
                    <path d="M130.71272,24.4172481 L130.71272,24.4172481 C131.189377,23.7180233 132.110913,23.5908915 132.81001,24.0358527 C133.763323,24.6715116 134.970853,25.1164729 136.400823,25.1164729 C138.148564,25.1164729 139.006546,24.3536822 139.006546,23.4637597 C139.006546,20.8575581 130.394949,22.700969 130.394949,17.0753876 C130.394949,14.5963178 132.555793,12.4986434 136.083052,12.4986434 C137.799016,12.4986434 139.29254,12.8482558 140.563624,13.5792636 C141.326275,14.0242248 141.548714,15.0412791 141.040281,15.7405039 C140.595401,16.3443798 139.769196,16.5032946 139.133654,16.1536822 C138.116787,15.5498062 136.972811,15.2955426 135.828835,15.2955426 C134.494196,15.2955426 133.731546,15.8676357 133.731546,16.7575581 C133.731546,19.1094961 142.311365,17.5203488 142.311365,23.1141473 C142.311365,25.8474806 140.341184,27.9133721 136.337269,27.9133721 C134.176425,27.9133721 132.492239,27.373062 131.189377,26.5149225 C130.394949,26.0699612 130.204287,25.1164729 130.71272,24.4172481" id="Fill-9" fill="#005F56"></path>
                    <path d="M144.376877,26.5149225 L144.376877,12.9753876 L153.560461,12.9753876 C154.323112,12.9753876 154.958654,13.6110465 154.958654,14.3738372 C154.958654,15.1366279 154.323112,15.7722868 153.560461,15.7722868 L147.586365,15.7722868 L147.586365,18.9187984 L150.573413,18.9187984 C151.336064,18.9187984 151.971606,19.5544574 151.971606,20.3172481 C151.971606,21.0800388 151.336064,21.7156977 150.573413,21.7156977 L147.586365,21.7156977 L147.586365,26.5149225 C147.586365,27.2777132 146.950823,27.9133721 146.188172,27.9133721 L145.806847,27.9133721 C145.012419,27.9133721 144.376877,27.3094961 144.376877,26.5149225" id="Fill-11" fill="#005F56"></path>
                    <path d="M157.151275,27.9133721 L157.151275,12.9753876 L166.334859,12.9753876 C167.09751,12.9753876 167.733052,13.6110465 167.733052,14.3738372 C167.733052,15.1366279 167.09751,15.7722868 166.334859,15.7722868 L160.360763,15.7722868 L160.360763,18.9187984 L163.347811,18.9187984 C164.110461,18.9187984 164.746004,19.5544574 164.746004,20.3172481 C164.746004,21.0800388 164.110461,21.7156977 163.347811,21.7156977 L160.360763,21.7156977 L160.360763,25.1164729 L166.334859,25.1164729 C167.09751,25.1164729 167.733052,25.7521318 167.733052,26.5149225 C167.733052,27.2777132 167.09751,27.9133721 166.334859,27.9133721 L157.151275,27.9133721 Z" id="Fill-13" fill="#005F56"></path>
                    <path d="M170.211698,27.9133721 L170.211698,12.9753876 L179.395282,12.9753876 C180.157933,12.9753876 180.793475,13.6110465 180.793475,14.3738372 C180.793475,15.1366279 180.157933,15.7722868 179.395282,15.7722868 L173.421186,15.7722868 L173.421186,18.9187984 L176.408234,18.9187984 C177.170885,18.9187984 177.806427,19.5544574 177.806427,20.3172481 C177.806427,21.0800388 177.170885,21.7156977 176.408234,21.7156977 L173.421186,21.7156977 L173.421186,25.1164729 L179.395282,25.1164729 C180.157933,25.1164729 180.793475,25.7521318 180.793475,26.5149225 C180.793475,27.2777132 180.157933,27.9133721 179.395282,27.9133721 L170.211698,27.9133721 Z" id="Fill-15" fill="#005F56"></path>
                    <path d="M192.04254,17.7746124 C192.04254,16.5350775 191.089227,15.7722868 189.818142,15.7722868 L186.449769,15.7722868 L186.449769,19.8087209 L189.818142,19.8087209 C191.089227,19.8087209 192.04254,19.0459302 192.04254,17.7746124 M191.279889,27.1187984 L188.801275,22.6056202 L186.481546,22.6056202 L186.481546,26.3560078 C186.481546,27.2141473 185.782449,27.9133721 184.924467,27.9133721 L184.860913,27.9133721 C184.002931,27.9133721 183.303835,27.2141473 183.303835,26.3560078 L183.303835,12.9753876 L190.294799,12.9753876 C193.408955,12.9753876 195.347359,15.0094961 195.347359,17.8063953 C195.347359,20.4125969 193.663172,21.8428295 192.04254,22.2242248 L194.01272,25.5296512 C194.648263,26.5784884 193.885612,27.8815891 192.678082,27.8815891 C192.074317,27.9133721 191.565883,27.5955426 191.279889,27.1187984" id="Fill-17" fill="#005F56"></path>
                    <path d="M203.863624,16.1536822 L201.543895,22.5738372 L206.21513,22.5738372 L203.863624,16.1536822 Z M207.6451,26.8963178 L207.073112,25.4025194 L200.685913,25.4025194 L200.113925,26.8963178 C199.891486,27.5319767 199.319498,27.9133721 198.652178,27.9133721 L198.366184,27.9133721 C197.285763,27.9133721 196.491335,26.800969 196.904437,25.7839147 L201.130793,14.8187984 C201.575672,13.7063953 202.624317,12.9436047 203.863624,12.9436047 C205.071154,12.9436047 206.151576,13.7063953 206.596455,14.8187984 L210.822811,25.7839147 C211.204136,26.8327519 210.473263,27.9133721 209.361064,27.9133721 L209.138624,27.9133721 C208.471305,27.9133721 207.86754,27.5319767 207.6451,26.8963178 L207.6451,26.8963178 Z" id="Fill-19" fill="#005F56"></path>
                    <path d="M23.8010542,38.5368217 L23.8010542,7.15116279 L19.034488,7.15116279 L19.034488,38.5368217 C19.034488,39.8399225 20.1149096,40.9205426 21.4177711,40.9205426 C22.7524096,40.9205426 23.8010542,39.8399225 23.8010542,38.5368217" id="Fill-21" fill="#1EBFAE"></path>
                    <path d="M52.4004518,38.5368217 L52.4004518,10.7267442 L47.6338855,10.7267442 L47.6338855,38.5368217 C47.6338855,39.8399225 48.7143072,40.9205426 50.0171687,40.9205426 C51.3518072,40.9205426 52.4004518,39.8399225 52.4004518,38.5368217" id="Fill-23" fill="#1EBFAE"></path>
                    <path d="M38.100753,30.3050388 L38.100753,38.5368217 C38.100753,39.8399225 39.1811747,40.9205426 40.4840361,40.9205426 C41.7868976,40.9205426 42.8673193,39.8399225 42.8673193,38.5368217 L42.8673193,33.674031 C42.8673193,31.7988372 41.5644578,30.146124 39.6896084,29.7647287 C39.4353916,29.7011628 38.100753,29.3763411 38.100753,30.3050388" id="Fill-25" fill="#1EBFAE"></path>
                    <path d="M14.2679217,26.3639535 L14.2679217,7.15116279 L9.50135542,7.15116279 L9.50135542,25.7918605 C11.0902108,25.9507752 12.6790663,26.1414729 14.2679217,26.3639535" id="Fill-27" fill="#1EBFAE"></path>
                    <path d="M9.50135542,31.2788364 L9.50135542,38.5367899 C9.50135542,39.8398907 10.5817771,40.9205109 11.8846386,40.9205109 C13.1875,40.9205109 14.2679217,39.8398907 14.2679217,38.5367899 L14.2679217,34.6160457 C14.2679217,32.5819372 12.7426205,30.8656581 10.7088855,30.6431775 C10.55,30.6113946 9.50135542,30.5818364 9.50135542,31.2788364" id="Fill-29" fill="#1EBFAE"></path>
                    <path d="M14.2679217,7.15116279 L14.2679217,7.15116279 C14.2679217,5.84806202 15.3483434,4.76744186 16.6512048,4.76744186 C17.9540663,4.76744186 19.034488,5.84806202 19.034488,7.15116279 L23.8010542,7.15116279 C23.8010542,3.21007752 20.5915663,0 16.6512048,0 C12.7108434,0 9.50135542,3.21007752 9.50135542,7.15116279 L14.2679217,7.15116279 Z" id="Fill-31" fill="#1EBFAE"></path>
                    <path d="M42.8673193,10.7267442 L42.8673193,10.7267442 C42.8673193,9.42364341 43.947741,8.34302326 45.2506024,8.34302326 C46.5534639,8.34302326 47.6338855,9.42364341 47.6338855,10.7267442 L52.4004518,10.7267442 C52.4004518,6.78565891 49.1909639,3.5755814 45.2506024,3.5755814 C41.310241,3.5755814 38.100753,6.78565891 38.100753,10.7267442 L42.8673193,10.7267442 Z" id="Fill-33" fill="#1EBFAE"></path>
                    <path d="M51.1293675,23.9802326 L51.1293675,28.7794574 C54.4024096,29.2244186 57.6436747,29.7647287 60.8531627,30.4003876 C61.3933735,30.4957364 61.9018072,30.0825581 61.9018072,29.5422481 C61.9018072,27.3174419 60.2811747,25.4104651 58.0885542,25.0290698 C55.8006024,24.6476744 53.4808735,24.298062 51.1293675,23.9802326" id="Fill-35" fill="#1EBFAE"></path>
                    <path d="M16.8418675,23.5352713 C11.5668675,24.0755814 6.35542169,24.870155 1.23930723,25.9189922 C0.508433735,26.077907 0,26.7135659 0,27.4445736 C0,29.2879845 1.71596386,30.6864341 3.52725904,30.3050388 C7.24518072,29.574031 11.0266566,28.970155 14.8081325,28.5251938 C16.5240964,28.3344961 17.7951807,26.9042636 17.7951807,25.1879845 L17.7951807,24.3934109 C17.7634036,23.8848837 17.3503012,23.4717054 16.8418675,23.5352713" id="Fill-37" fill="#1EBFAE"></path>
                    <path d="M31.9677711,22.7724806 C28.8218373,22.7724806 25.6759036,22.8678295 22.561747,23.0585271 L22.561747,27.825969 C25.6759036,27.6352713 28.8218373,27.5399225 31.9677711,27.5399225 C35.5903614,27.5399225 39.2129518,27.6670543 42.771988,27.9213178 C44.7103916,28.0802326 46.3628012,26.5228682 46.3628012,24.5523256 L46.3628012,24.2027132 C46.3628012,23.7577519 46.013253,23.3763566 45.6001506,23.3445736 C41.0878012,22.9949612 36.5436747,22.7724806 31.9677711,22.7724806" id="Fill-39" fill="#1EBFAE"></path>
                    <path d="M17.7634036,7.37574109 C17.7634036,6.49789612 16.7420873,6.01543101 16.0642816,6.57322171 L16.0493464,6.58561705 L16.0426732,6.59133798 C15.3410346,7.17646202 15.2708072,8.20972558 15.8891898,8.88193488 C16.1577063,9.17370233 16.4268584,9.4549814 16.6966461,9.72640775 C17.0894111,10.1214698 17.7634036,9.84146202 17.7634036,9.28430698 L17.7634036,7.37574109 Z" id="Fill-41" fill="#1EBFAE"></path>
                    <path d="M45.8264989,10.4544915 C45.3256917,9.81120465 44.4209974,9.65356124 43.7311164,10.0883519 C40.5673875,12.0808248 31.6151405,16.5571349 22.5300652,10.466569 L22.5300652,14.1819953 C25.9839191,16.066724 29.358648,16.7074682 32.3463318,16.7074682 C33.8001345,16.7074682 35.1633724,16.5561814 36.3979131,16.3235302 C40.4371014,15.5629643 43.6631134,13.8616233 45.4175276,12.7708326 C46.2154508,12.2747008 46.4035712,11.1959876 45.8264989,10.4544915" id="Fill-43" fill="#1EBFAE"></path>
                    <path d="M42.8673193,12.7028806 L42.8673193,10.7266171 L38.100753,10.7266171 L38.100753,14.3549581 C39.9301611,13.9484543 41.5495226,13.3280512 42.8673193,12.7028806" id="Fill-45" fill="#1EBFAE"></path>
                    <path d="M38.100753,19.9469132 L38.100753,24.584045 C39.7213855,24.9018744 41.310241,25.2197039 42.8673193,25.5693163 L42.8673193,17.1725798 C42.8673193,16.6799442 42.3773163,16.343045 41.914006,16.5111767 C41.4011235,16.6974248 40.8640904,16.8747736 40.305131,17.0375023 C39.0051295,17.4160372 38.100753,18.5926419 38.100753,19.9469132" id="Fill-47" fill="#1EBFAE"></path>
                    <path d="M42.6247328,3.5755814 L47.856516,3.5755814 C50.3605521,3.5755814 52.3904738,5.60587597 52.3904738,8.11037209 L52.3904738,10.7267442 L48.7326108,10.7267442 L45.2406244,6.45511628 L41.5827614,10.7267442 L38.090775,10.7267442 L38.090775,8.11037209 C38.090775,5.60587597 40.1206967,3.5755814 42.6247328,3.5755814" id="Fill-49" fill="#1EBFAE"></path>
                    <path d="M14.0253352,0 L19.2571184,0 C21.7611545,0 23.7910762,2.03029457 23.7910762,4.5347907 L23.7910762,7.15116279 L20.1332133,7.15116279 L16.6412268,2.87953488 L12.9833639,7.15116279 L9.49137741,7.15116279 L9.49137741,4.5347907 C9.49137741,2.03029457 11.5212991,0 14.0253352,0" id="Fill-51" fill="#1EBFAE"></path>
                </g>
            </g>
        </g>
    </g>
</svg>